<?xml version="1.0" encoding="UTF-8" standalone="no"?>
<svg
   xmlns:dc="http://purl.org/dc/elements/1.1/"
   xmlns:cc="http://creativecommons.org/ns#"
   xmlns:rdf="http://www.w3.org/1999/02/22-rdf-syntax-ns#"
   xmlns:svg="http://www.w3.org/2000/svg"
   xmlns="http://www.w3.org/2000/svg"
   xmlns:sodipodi="http://sodipodi.sourceforge.net/DTD/sodipodi-0.dtd"
   xmlns:inkscape="http://www.inkscape.org/namespaces/inkscape"
   width="1200px"
   height="100px"
   viewBox="0 0 1200 100"
   version="1.1"
   id="SVGRoot"
   sodipodi:docname="logo.svg"
   inkscape:version="1.0.2 (e86c870879, 2021-01-15, custom)">
  <defs
     id="defs260">
    <rect
       x="399.98563"
       y="4.1243066"
       width="348.36008"
       height="68.395756"
       id="rect293" />
    <rect
       x="2.5034631"
       y="1.8873156"
       width="1195.4104"
       height="95.849105"
       id="rect275" />
  </defs>
  <sodipodi:namedview
     id="base"
     pagecolor="#ffffff"
     bordercolor="#666666"
     borderopacity="1.0"
     inkscape:pageopacity="0.0"
     inkscape:pageshadow="2"
     inkscape:zoom="0.98994949"
     inkscape:cx="949.10852"
     inkscape:cy="-28.232695"
     inkscape:document-units="px"
     inkscape:current-layer="layer1"
     inkscape:document-rotation="0"
     showgrid="false"
     inkscape:window-width="2729"
     inkscape:window-height="735"
     inkscape:window-x="383"
     inkscape:window-y="335"
     inkscape:window-maximized="0" />
  <metadata
     id="metadata263">
    <rdf:RDF>
      <cc:Work
         rdf:about="">
        <dc:format>image/svg+xml</dc:format>
        <dc:type
           rdf:resource="http://purl.org/dc/dcmitype/StillImage" />
        <dc:title></dc:title>
      </cc:Work>
    </rdf:RDF>
  </metadata>
  <g
     inkscape:label="Layer 1"
     inkscape:groupmode="layer"
     id="layer1">
    <text
       xml:space="preserve"
       id="text273"
       style="fill:black;fill-opacity:1;line-height:1.25;stroke:none;font-family:sans-serif;font-style:normal;font-weight:normal;font-size:40px;white-space:pre;shape-inside:url(#rect275);" />
    <g
       aria-label="Lithium Sunset_"
       id="text281"
       style="font-style:normal;font-weight:normal;font-size:40px;line-height:1.25;font-family:sans-serif;fill:#000000;fill-opacity:1;stroke:none">
      <path
         d="M 119.50637,79.317604 H 69.394369 q -19.776,0 -19.776,-18.24 v -49.344 h 12.768 v 49.344 q 0,5.952 7.008,5.952 h 50.112001 z"
         style="font-style:normal;font-variant:normal;font-weight:normal;font-stretch:normal;font-size:96px;font-family:'Saved By Zero';-inkscape-font-specification:'Saved By Zero, Normal';font-variant-ligatures:normal;font-variant-caps:normal;font-variant-numeric:normal;font-variant-east-asian:normal"
         id="path53" />
      <path
         d="m 126.32232,79.317604 z m 12.768,0 h -12.768 v -67.584 h 12.768 z"
         style="font-style:normal;font-variant:normal;font-weight:normal;font-stretch:normal;font-size:96px;font-family:'Saved By Zero';-inkscape-font-specification:'Saved By Zero, Normal';font-variant-ligatures:normal;font-variant-caps:normal;font-variant-numeric:normal;font-variant-east-asian:normal"
         id="path55" />
      <path
         d="m 146.0983,79.317604 z m 74.592,-55.584 h -31.104 v 55.584 h -12.672 v -55.584 h -30.816 v -12 h 74.592 z"
         style="font-style:normal;font-variant:normal;font-weight:normal;font-stretch:normal;font-size:96px;font-family:'Saved By Zero';-inkscape-font-specification:'Saved By Zero, Normal';font-variant-ligatures:normal;font-variant-caps:normal;font-variant-numeric:normal;font-variant-east-asian:normal"
         id="path57" />
      <path
         d="m 227.79425,79.317604 z m 12.768,-40.032 h 53.28 v -27.552 h 12.672 v 67.584 h -12.672 v -27.552 h -53.28 v 27.552 h -12.768 v -67.584 h 12.768 z"
         style="font-style:normal;font-variant:normal;font-weight:normal;font-stretch:normal;font-size:96px;font-family:'Saved By Zero';-inkscape-font-specification:'Saved By Zero, Normal';font-variant-ligatures:normal;font-variant-caps:normal;font-variant-numeric:normal;font-variant-east-asian:normal"
         id="path59" />
      <path
         d="m 316.11407,79.317604 z m 12.768,0 h -12.768 v -67.584 h 12.768 z"
         style="font-style:normal;font-variant:normal;font-weight:normal;font-stretch:normal;font-size:96px;font-family:'Saved By Zero';-inkscape-font-specification:'Saved By Zero, Normal';font-variant-ligatures:normal;font-variant-caps:normal;font-variant-numeric:normal;font-variant-east-asian:normal"
         id="path61" />
      <path
         d="m 338.19405,79.317604 z m 60.96,-12.288 q 1.728,0 2.688,-0.192 1.056,-0.192 1.536,-0.768 0.576,-0.576 0.672,-1.536 0.192,-1.056 0.192,-2.592 v -50.208 h 12.768 v 50.208 q 0,8.832 -4.224,13.152 -4.128,4.224 -13.632,4.224 h -43.104 q -9.504,0 -13.728,-4.224 -4.128,-4.32 -4.128,-13.152 v -50.208 h 12.768 v 50.208 q 0,1.536 0.096,2.592 0.192,0.96 0.672,1.536 0.576,0.576 1.536,0.768 1.056,0.192 2.784,0.192 h 43.104 z"
         style="font-style:normal;font-variant:normal;font-weight:normal;font-stretch:normal;font-size:96px;font-family:'Saved By Zero';-inkscape-font-specification:'Saved By Zero, Normal';font-variant-ligatures:normal;font-variant-caps:normal;font-variant-numeric:normal;font-variant-east-asian:normal"
         id="path63" />
      <path
         d="m 426.32196,79.317604 z m 60.672,-50.88 q 0,-8.544 4.032,-12.576 4.128,-4.128 12.48,-4.128 h 15.36 q 3.84,0 6.816,1.344 2.976,1.248 5.088,3.456 2.112,2.208 3.168,5.28 1.152,3.072 1.152,6.528 v 50.976 h -12.768 v -50.496 q 0,-2.592 -1.056,-3.84 -0.96,-1.248 -4.032,-1.248 h -12.96 q -2.784,0 -3.744,1.248 -0.864,1.248 -0.864,4.032 v 33.12 q 0,8.544 -4.128,12.864 -4.032,4.32 -14.112,4.32 h -1.344 q -10.08,0 -14.208,-4.32 -4.032,-4.32 -4.032,-12.864 v -33.12 q 0,-2.784 -0.96,-4.032 -0.96,-1.248 -3.648,-1.248 h -12.96 q -3.072,0 -4.128,1.248 -0.96,1.248 -0.96,3.84 v 50.496 h -12.864 v -50.976 q 0,-3.456 1.056,-6.528 1.152,-3.072 3.264,-5.28 2.112,-2.208 5.088,-3.456 3.072,-1.344 6.912,-1.344 h 15.36 q 8.352,0 12.384,4.128 4.128,4.032 4.128,12.576 v 33.408 q 0,2.688 1.44,3.936 1.44,1.152 3.744,1.152 h 2.112 q 2.304,0 3.744,-1.152 1.44,-1.248 1.44,-3.936 z"
         style="font-style:normal;font-variant:normal;font-weight:normal;font-stretch:normal;font-size:96px;font-family:'Saved By Zero';-inkscape-font-specification:'Saved By Zero, Normal';font-variant-ligatures:normal;font-variant-caps:normal;font-variant-numeric:normal;font-variant-east-asian:normal"
         id="path65" />
      <path
         d="m 583.66577,67.221604 h 58.848 q 1.248,0 2.496,-0.48 1.344,-0.48 2.304,-1.344 1.056,-0.864 1.632,-1.92 0.672,-1.152 0.672,-2.4 v -3.648 q 0,-5.952 -7.104,-5.952 h -40.128 q -5.088,0 -8.832,-1.344 -3.744,-1.344 -6.144,-3.744 -2.4,-2.496 -3.552,-5.76 -1.152,-3.36 -1.152,-7.392 v -3.36 q 0,-3.744 1.248,-7.008 1.344,-3.36 3.84,-5.76 2.496,-2.496 6.144,-3.936 3.648,-1.44 8.448,-1.44 h 58.752 v 12 h -58.752 q -1.248,0 -2.496,0.48 -1.248,0.48 -2.304,1.344 -0.96,0.864 -1.632,2.016 -0.576,1.056 -0.576,2.304 v 3.36 q 0,6.048 7.008,6.048 h 40.128 q 5.088,0 8.736,1.44 3.744,1.344 6.144,3.84 2.496,2.4 3.648,5.76 1.248,3.264 1.248,7.104 v 3.648 q 0,3.936 -1.344,7.296 -1.344,3.264 -3.84,5.76 -2.496,2.4 -6.24,3.84 -3.648,1.344 -8.352,1.344 h -58.848 z"
         style="font-style:normal;font-variant:normal;font-weight:normal;font-stretch:normal;font-size:96px;font-family:'Saved By Zero';-inkscape-font-specification:'Saved By Zero, Normal';font-variant-ligatures:normal;font-variant-caps:normal;font-variant-numeric:normal;font-variant-east-asian:normal"
         id="path67" />
      <path
         d="m 670.64162,79.317604 z m 60.96,-12.288 q 1.728,0 2.688,-0.192 1.056,-0.192 1.536,-0.768 0.576,-0.576 0.672,-1.536 0.192,-1.056 0.192,-2.592 v -50.208 h 12.768 v 50.208 q 0,8.832 -4.224,13.152 -4.128,4.224 -13.632,4.224 h -43.104 q -9.504,0 -13.728,-4.224 -4.128,-4.32 -4.128,-13.152 v -50.208 h 12.768 v 50.208 q 0,1.536 0.096,2.592 0.192,0.96 0.672,1.536 0.576,0.576 1.536,0.768 1.056,0.192 2.784,0.192 h 43.104 z"
         style="font-style:normal;font-variant:normal;font-weight:normal;font-stretch:normal;font-size:96px;font-family:'Saved By Zero';-inkscape-font-specification:'Saved By Zero, Normal';font-variant-ligatures:normal;font-variant-caps:normal;font-variant-numeric:normal;font-variant-east-asian:normal"
         id="path69" />
      <path
         d="m 758.48153,79.317604 z m 35.52,-50.304 q 0,-2.784 -0.96,-4.032 -0.96,-1.248 -3.648,-1.248 h -12.96 q -3.072,0 -4.128,1.248 -0.96,1.248 -0.96,3.84 v 50.496 h -12.864 v -50.976 q 0,-3.456 1.056,-6.528 1.152,-3.072 3.264,-5.28 2.112,-2.208 5.088,-3.456 3.072,-1.344 6.912,-1.344 h 15.36 q 8.352,0 12.384,4.128 4.128,4.032 4.128,12.576 v 33.504 q 0,2.784 0.864,4.032 0.96,1.248 3.744,1.248 h 12.96 q 3.072,0 4.032,-1.152 1.056,-1.248 1.056,-3.936 v -50.4 h 12.864 v 50.88 q 0,3.456 -1.152,6.528 -1.056,3.072 -3.168,5.376 -2.112,2.208 -5.184,3.552 -2.976,1.248 -6.816,1.248 h -15.36 q -8.352,0 -12.48,-4.032 -4.032,-4.128 -4.032,-12.768 z"
         style="font-style:normal;font-variant:normal;font-weight:normal;font-stretch:normal;font-size:96px;font-family:'Saved By Zero';-inkscape-font-specification:'Saved By Zero, Normal';font-variant-ligatures:normal;font-variant-caps:normal;font-variant-numeric:normal;font-variant-east-asian:normal"
         id="path71" />
      <path
         d="m 850.54549,79.317604 z m 0.96,-12.096 h 58.848 q 1.248,0 2.496,-0.48 1.344,-0.48 2.304,-1.344 1.056,-0.864 1.632,-1.92 0.672,-1.152 0.672,-2.4 v -3.648 q 0,-5.952 -7.104,-5.952 h -40.128 q -5.088,0 -8.832,-1.344 -3.744,-1.344 -6.144,-3.744 -2.4,-2.496 -3.552,-5.76 -1.152,-3.36 -1.152,-7.392 v -3.36 q 0,-3.744 1.248,-7.008 1.344,-3.36 3.84,-5.76 2.496,-2.496 6.144,-3.936 3.648,-1.44 8.448,-1.44 h 58.752 v 12 h -58.752 q -1.248,0 -2.496,0.48 -1.248,0.48 -2.304,1.344 -0.96,0.864 -1.632,2.016 -0.576,1.056 -0.576,2.304 v 3.36 q 0,6.048 7.008,6.048 h 40.128 q 5.088,0 8.736,1.44 3.744,1.344 6.144,3.84 2.496,2.4 3.648,5.76 1.248,3.264 1.248,7.104 v 3.648 q 0,3.936 -1.344,7.296 -1.344,3.264 -3.84,5.76 -2.496,2.4 -6.24,3.84 -3.648,1.344 -8.352,1.344 h -58.848 z"
         style="font-style:normal;font-variant:normal;font-weight:normal;font-stretch:normal;font-size:96px;font-family:'Saved By Zero';-inkscape-font-specification:'Saved By Zero, Normal';font-variant-ligatures:normal;font-variant-caps:normal;font-variant-numeric:normal;font-variant-east-asian:normal"
         id="path73" />
      <path
         d="m 938.19335,79.317604 z m 79.19995,0 h -61.34395 q -9.504,0 -13.728,-4.224 -4.128,-4.32 -4.128,-13.152 v -33.024 q 0,-8.736 4.224,-12.96 4.32,-4.224 13.632,-4.224 h 61.34395 v 12 h -61.34395 q -2.496,0 -3.84,1.344 -1.248,1.344 -1.248,3.84 v 8.256 h 66.43195 v 12.48 h -66.43195 v 12.288 q 0,1.536 0.096,2.592 0.192,0.96 0.672,1.536 0.576,0.576 1.536,0.768 1.056,0.192 2.784,0.192 h 61.34395 z"
         style="font-style:normal;font-variant:normal;font-weight:normal;font-stretch:normal;font-size:96px;font-family:'Saved By Zero';-inkscape-font-specification:'Saved By Zero, Normal';font-variant-ligatures:normal;font-variant-caps:normal;font-variant-numeric:normal;font-variant-east-asian:normal"
         id="path75" />
      <path
         d="m 1022.2893,79.317604 z m 74.592,-55.584 h -31.104 v 55.584 h -12.672 v -55.584 h -30.816 v -12 h 74.592 z"
         style="font-style:normal;font-variant:normal;font-weight:normal;font-stretch:normal;font-size:96px;font-family:'Saved By Zero';-inkscape-font-specification:'Saved By Zero, Normal';font-variant-ligatures:normal;font-variant-caps:normal;font-variant-numeric:normal;font-variant-east-asian:normal"
         id="path77" />
      <path
         d="m 1098.8972,93.525604 v -9.888 h 64.128 v 9.888 z"
         style="font-style:normal;font-variant:normal;font-weight:normal;font-stretch:normal;font-size:96px;font-family:'Saved By Zero';-inkscape-font-specification:'Saved By Zero, Normal';font-variant-ligatures:normal;font-variant-caps:normal;font-variant-numeric:normal;font-variant-east-asian:normal"
         id="path79" />
    </g>
    <text
       xml:space="preserve"
       id="text291"
       style="fill:black;fill-opacity:1;line-height:1.25;stroke:none;font-family:sans-serif;font-style:normal;font-weight:normal;font-size:40px;white-space:pre;shape-inside:url(#rect293);" />
  </g>
</svg>
